<svg xmlns="http://www.w3.org/2000/svg" version="1.1" xlink="http://www.w3.org/1999/xlink" xmlns:svgjs="http://svgjs.com/svgjs" width="100%" height="100%" preserveAspectRatio="xMidYMid meet" viewBox="8.971329066298495e-7 0.0000011611294894464663 299.99920654296875 48.972816467285156" overflow="visible"><defs id="SvgjsDefs213648"></defs><g id="SvgjsG213649" transform="scale(0.6493506493506493)" opacity="1"><g id="SvgjsG213650" class="iYFAJR6F4" transform="translate(-13.482181979536037, -28.761148553010088) scale(1.2782732690226706)" light-content="false" non-strokable="false" fill="#fff"><path d="M50 81.5c-16.3 0-29.5-13.2-29.5-29.5S33.7 22.5 50 22.5c6.8 0 13.5 2.4 18.8 6.7 3.3 2.7 6 6.2 7.8 10 .4.7 0 1.6-.7 2-.7.4-1.6 0-2-.7-1.7-3.4-4.1-6.5-7-9-4.7-3.9-10.7-6.1-16.9-6.1-14.6 0-26.5 11.9-26.5 26.5S35.4 78.5 50 78.5c10.3 0 19.7-6 24.1-15.4.3-.8 1.2-1.1 2-.7.8.3 1.1 1.2.7 2C72 74.8 61.5 81.5 50 81.5z"></path><path d="M27.7 71.1c-8.8 0-15-2.4-16.7-6.9-1.8-4.9 1.8-11.2 10.2-17.5.7-.5 1.6-.4 2.1.3s.4 1.6-.3 2.1c-7 5.3-10.4 10.6-9.2 14.1 2 5.4 15.8 7.3 35.6 1.2.8-.2 1.6.2 1.9 1 .2.8-.2 1.6-1 1.9-8.4 2.6-16.2 3.8-22.6 3.8zm59.9-33.3c-.6 0-1.2-.4-1.4-1-1.3-3.5-7.3-5.3-16.1-4.9h-2.3c-.8 0-1.5-.7-1.5-1.5s.7-1.5 1.5-1.5H70c10.4-.5 17.2 1.9 19 6.9.3.8-.1 1.6-.9 1.9-.2.1-.3.1-.5.1z"></path><path d="M50 67.1c-.2 0-.4 0-.6-.1l-7.3-3.4c-.8-.3-1.1-1.2-.7-2 .4-.8 1.2-1.1 2-.7l7.3 3.4c.8.3 1.1 1.2.7 2-.3.5-.8.8-1.4.8z"></path><path d="M46.6 74.4c-.2 0-.4 0-.6-.1-.8-.3-1.1-1.2-.7-2l3.4-7.3c.4-.8 1.2-1.1 2-.7.8.3 1.1 1.2.7 2L48 73.5c-.3.6-.8.9-1.4.9zm12-10.4c-.2 0-.4 0-.6-.1l-12-5.5c-.6-.3-1-1-.8-1.7s.7-1.2 1.4-1.2l11.9-.4 4.3-2.6-6.7-7.2c-.3-.3-.4-.7-.4-1.1 0-.4.2-.8.5-1.1.2-.1 1.7-1.4 4.7-1.4 3.7 0 8 1.9 12.8 5.5l10.2-4.7c.6-.3 1.5-.4 2.5-.4 1.9 0 5.4.5 6.3 2.6.4.9.8 2.5-1 4-.9.7-2.3 1.4-4 2.2l-28.5 13c-.2.1-.4.1-.6.1zM53 58.3l5.6 2.5 27.7-12.6c1.5-.7 3.4-1.5 3.6-2 0 0 0-.1-.1-.2-.2-.3-1.7-.8-3.6-.8-.7 0-1.1.1-1.3.2l-11 5c-.5.2-1.1.2-1.6-.2-5.6-4.5-9.4-5.4-11.6-5.4-.4 0-.8 0-1.2.1l6.5 6.9c.3.3.5.8.4 1.2-.1.4-.3.8-.7 1.1l-6.2 3.8c-.2.1-.5.2-.7.2l-5.8.2z"></path></g><g id="SvgjsG213651" class="text" transform="translate(297.76869988058695, 53.11411368943326) scale(1)" light-content="false" fill="#fff"><path d="M-139.24 -18.29C-138.06 -20 -137.47 -21.88 -137.47 -23.92C-137.47 -26.75 -138.48 -29.17 -140.5 -31.19C-142.42 -33.17 -144.81 -34.16 -147.66 -34.16L-159.39 -34.16C-161.38 -34.16 -162.59 -33.75 -163.02 -32.91C-163.27 -32.44 -163.42 -32.04 -163.47 -31.7C-163.51 -31.36 -163.54 -30.81 -163.54 -30.07L-163.54 -4.24C-163.54 -3.15 -163.44 -2.34 -163.26 -1.82C-162.88 -0.64 -161.61 -0.05 -159.44 -0.05L-147.2 -0.05C-144.25 -0.05 -141.74 -1.09 -139.68 -3.19C-137.62 -5.28 -136.56 -7.88 -136.49 -10.98C-136.49 -13.68 -137.41 -16.12 -139.24 -18.29ZM-144.73 -11.45C-144.73 -9.34 -145.71 -8.29 -147.66 -8.29L-155.3 -8.29L-155.3 -25.93L-148.78 -25.93C-147.76 -25.93 -146.99 -25.77 -146.48 -25.46C-145.97 -25.15 -145.71 -24.61 -145.71 -23.83C-145.71 -23.06 -145.76 -22.5 -145.85 -22.16C-146.1 -21.5 -146.84 -21.18 -148.08 -21.18C-149.42 -21.18 -150.37 -20.96 -150.95 -20.53C-151.52 -20.09 -151.81 -19.2 -151.81 -17.85C-151.81 -16.5 -151.53 -15.61 -150.97 -15.17C-150.41 -14.74 -149.57 -14.52 -148.46 -14.52C-147.34 -14.52 -146.47 -14.4 -145.85 -14.15C-145.45 -13.96 -145.16 -13.65 -144.99 -13.22C-144.82 -12.78 -144.73 -12.19 -144.73 -11.45Z M-125.6 -21.46C-128.21 -19.04 -129.51 -15.96 -129.51 -12.24C-129.51 -9.76 -128.85 -7.53 -127.53 -5.56C-126.21 -3.59 -124.59 -2.1 -122.67 -1.09C-120.75 -0.09 -118.76 0.42 -116.71 0.42C-114.66 0.42 -112.69 -0.05 -110.78 -1C-108.87 -1.95 -107.25 -3.42 -105.91 -5.42C-104.58 -7.42 -103.91 -9.71 -103.91 -12.29C-103.91 -16.01 -105.2 -19.08 -107.77 -21.48C-110.35 -23.89 -113.31 -25.09 -116.66 -25.09C-120.02 -25.09 -123 -23.88 -125.6 -21.46ZM-116.76 -7.77C-117.78 -7.77 -118.79 -8.15 -119.78 -8.91C-120.78 -9.67 -121.27 -10.81 -121.27 -12.31C-121.27 -13.82 -120.79 -14.96 -119.83 -15.73C-118.87 -16.51 -117.83 -16.9 -116.71 -16.9C-115.59 -16.9 -114.55 -16.52 -113.59 -15.78C-112.63 -15.03 -112.15 -13.9 -112.15 -12.38C-112.15 -10.86 -112.66 -9.71 -113.69 -8.94C-114.71 -8.16 -115.73 -7.77 -116.76 -7.77Z M-93.02 -21.46C-95.63 -19.04 -96.93 -15.96 -96.93 -12.24C-96.93 -9.76 -96.27 -7.53 -94.95 -5.56C-93.63 -3.59 -92.01 -2.1 -90.09 -1.09C-88.16 -0.09 -86.18 0.42 -84.13 0.42C-82.08 0.42 -80.1 -0.05 -78.2 -1C-76.29 -1.95 -74.67 -3.42 -73.33 -5.42C-72 -7.42 -71.33 -9.71 -71.33 -12.29C-71.33 -16.01 -72.62 -19.08 -75.19 -21.48C-77.77 -23.89 -80.73 -25.09 -84.08 -25.09C-87.43 -25.09 -90.41 -23.88 -93.02 -21.46ZM-84.18 -7.77C-85.2 -7.77 -86.21 -8.15 -87.2 -8.91C-88.19 -9.67 -88.69 -10.81 -88.69 -12.31C-88.69 -13.82 -88.21 -14.96 -87.25 -15.73C-86.29 -16.51 -85.25 -16.9 -84.13 -16.9C-83.01 -16.9 -81.97 -16.52 -81.01 -15.78C-80.05 -15.03 -79.57 -13.9 -79.57 -12.38C-79.57 -10.86 -80.08 -9.71 -81.1 -8.94C-82.13 -8.16 -83.15 -7.77 -84.18 -7.77Z M-49.22 -12.29L-44.61 -16.2C-43.47 -17.16 -42.89 -18 -42.89 -18.71C-42.89 -19.42 -43.4 -20.41 -44.4 -21.67C-45.41 -22.92 -46.3 -23.55 -47.08 -23.55C-47.86 -23.55 -48.79 -23.13 -49.87 -22.3L-50.43 -21.92C-50.99 -21.46 -51.84 -20.67 -52.97 -19.55C-54.1 -18.43 -54.95 -17.64 -55.5 -17.18L-55.5 -31.93C-55.5 -32.52 -55.52 -32.95 -55.55 -33.23C-55.58 -34.16 -55.86 -34.85 -56.39 -35.28C-57.01 -35.81 -58.06 -36.07 -59.55 -36.07C-61.54 -36.07 -62.75 -35.65 -63.18 -34.82C-63.4 -34.35 -63.53 -33.94 -63.58 -33.58C-63.63 -33.23 -63.65 -32.69 -63.65 -31.98L-63.65 -4.1C-63.65 -3.38 -63.63 -2.85 -63.58 -2.49C-63.53 -2.13 -63.4 -1.72 -63.18 -1.26C-62.75 -0.42 -61.56 0 -59.6 0C-57.61 0 -56.42 -0.4 -56.02 -1.21C-55.77 -1.68 -55.62 -2.09 -55.57 -2.44C-55.53 -2.8 -55.5 -3.34 -55.5 -4.05L-55.5 -7.63C-54.73 -7.01 -53.6 -5.97 -52.11 -4.49C-50.62 -3.02 -49.52 -1.99 -48.8 -1.4L-48.34 -1.07C-47.13 -0.17 -46.18 0.28 -45.5 0.28C-44.69 0.28 -43.76 -0.37 -42.71 -1.68C-41.74 -2.95 -41.26 -3.96 -41.26 -4.7C-41.26 -5.01 -41.36 -5.34 -41.56 -5.68C-41.77 -6.02 -42.26 -6.52 -43.03 -7.17Z M-34.05 -20.43L-34.05 -4.1C-34.05 -3.35 -34.02 -2.81 -33.98 -2.47C-33.93 -2.13 -33.8 -1.72 -33.58 -1.26C-33.15 -0.42 -31.95 0 -30 0C-28.01 0 -26.82 -0.4 -26.41 -1.21C-26.17 -1.68 -26.02 -2.09 -25.97 -2.44C-25.93 -2.8 -25.9 -3.34 -25.9 -4.05L-25.9 -20.34C-25.9 -20.93 -25.92 -21.38 -25.95 -21.69C-25.98 -22.59 -26.26 -23.26 -26.79 -23.69C-27.41 -24.22 -28.46 -24.48 -29.95 -24.48C-31.94 -24.48 -33.15 -24.08 -33.58 -23.27C-33.8 -22.81 -33.93 -22.4 -33.98 -22.04C-34.02 -21.68 -34.05 -21.15 -34.05 -20.43ZM-27.62 -28.11C-27.03 -28.3 -26.62 -28.62 -26.39 -29.07C-26.16 -29.52 -26.02 -29.92 -25.97 -30.28C-25.93 -30.63 -25.9 -31.17 -25.9 -31.88C-25.9 -32.6 -25.93 -33.13 -25.97 -33.49C-26.02 -33.85 -26.17 -34.26 -26.41 -34.72C-26.82 -35.56 -28 -35.98 -29.95 -35.98C-31.94 -35.98 -33.15 -35.56 -33.58 -34.72C-33.8 -34.29 -33.93 -33.89 -33.98 -33.54C-34.02 -33.18 -34.05 -32.64 -34.05 -31.93C-34.05 -31.22 -34.02 -30.68 -33.98 -30.32C-33.93 -29.97 -33.79 -29.56 -33.56 -29.09C-33.33 -28.63 -32.92 -28.3 -32.33 -28.11C-31.74 -27.93 -30.95 -27.83 -29.97 -27.83C-29 -27.83 -28.21 -27.93 -27.62 -28.11Z M-3.89 -24.53C-5.16 -24.53 -6.32 -24.17 -7.38 -23.46C-7.78 -23.21 -8.2 -22.88 -8.63 -22.48C-9.07 -22.08 -9.35 -21.77 -9.47 -21.55C-9.47 -22.3 -9.63 -22.93 -9.94 -23.46C-10.37 -24.17 -11.54 -24.53 -13.43 -24.53C-15.38 -24.53 -16.58 -24.14 -17.01 -23.37C-17.26 -22.93 -17.41 -22.54 -17.45 -22.18C-17.5 -21.82 -17.52 -21.3 -17.52 -20.62L-17.52 -4.14C-17.52 -3.43 -17.5 -2.89 -17.45 -2.54C-17.41 -2.18 -17.28 -1.77 -17.06 -1.3C-16.62 -0.47 -15.43 -0.05 -13.47 -0.05C-11.49 -0.05 -10.29 -0.47 -9.89 -1.3C-9.64 -1.74 -9.5 -2.13 -9.45 -2.49C-9.4 -2.85 -9.38 -3.38 -9.38 -4.1L-9.38 -12.33C-9.38 -13.54 -9 -14.52 -8.24 -15.27C-7.48 -16.01 -6.49 -16.38 -5.26 -16.38C-4.03 -16.38 -3.06 -16.03 -2.33 -15.31C-1.6 -14.6 -1.23 -13.61 -1.23 -12.33L-1.23 -4.14C-1.23 -3.09 -1.14 -2.3 -0.95 -1.77C-0.61 -0.62 0.66 -0.05 2.86 -0.05C4.85 -0.05 6.06 -0.47 6.49 -1.3C6.71 -1.74 6.84 -2.13 6.89 -2.49C6.94 -2.85 6.96 -3.38 6.96 -4.1L6.96 -12.29C6.96 -15.7 5.93 -18.59 3.86 -20.97C1.8 -23.34 -0.78 -24.53 -3.89 -24.53Z M30.88 -3.07L30.88 -1.68C30.88 -0.37 30.51 0.74 29.77 1.68C29.02 2.61 28.06 3.07 26.88 3.07C25.14 3.07 23.53 2.5 22.04 1.35C21.57 0.98 21.12 0.79 20.69 0.79C20.25 0.79 19.87 0.92 19.55 1.16C19.22 1.41 18.77 1.86 18.18 2.51C17.24 3.44 16.78 4.51 16.78 5.73C16.78 6.66 17.85 7.7 19.99 8.84C22.13 9.99 24.38 10.57 26.74 10.57C29.84 10.57 32.64 9.47 35.12 7.28C37.6 5.1 38.84 2.22 38.84 -1.35L38.84 -20.62C38.84 -21.33 38.82 -21.86 38.77 -22.2C38.73 -22.54 38.59 -22.94 38.35 -23.39C38.12 -23.84 37.72 -24.16 37.17 -24.34C36.61 -24.53 35.72 -24.62 34.51 -24.62C33.3 -24.62 32.43 -24.4 31.88 -23.95C31.34 -23.5 31.02 -22.84 30.93 -21.97C30.74 -22.25 30.49 -22.55 30.16 -22.88C29.84 -23.2 29.24 -23.56 28.37 -23.95C27.5 -24.34 26.54 -24.53 25.48 -24.53C22.78 -24.53 20.3 -23.33 18.04 -20.95C15.77 -18.56 14.64 -15.78 14.64 -12.61C14.64 -9.45 15.76 -6.68 18.01 -4.31C20.26 -1.93 22.68 -0.74 25.25 -0.74C27.83 -0.74 29.7 -1.52 30.88 -3.07ZM23.78 -9.87C22.99 -10.67 22.6 -11.58 22.6 -12.59C22.6 -13.6 22.97 -14.52 23.71 -15.36C24.46 -16.2 25.44 -16.62 26.65 -16.62C27.86 -16.62 28.82 -16.19 29.53 -15.34C30.25 -14.48 30.6 -13.57 30.6 -12.59C30.6 -11.61 30.23 -10.71 29.49 -9.89C28.74 -9.07 27.8 -8.66 26.67 -8.66C25.54 -8.66 24.58 -9.06 23.78 -9.87Z M68.54 -8.94C68.17 -8.69 67.55 -8.44 66.7 -8.19C65.85 -7.94 64.94 -7.82 63.98 -7.82C61.93 -7.82 59.96 -8.5 58.06 -9.87C57.1 -10.58 56.31 -11.56 55.69 -12.8C55.07 -14.04 54.76 -15.45 54.76 -17.01C54.76 -18.58 55.07 -19.98 55.69 -21.22C56.31 -22.47 57.09 -23.43 58.02 -24.11C59.97 -25.51 61.96 -26.2 63.98 -26.2C66.15 -26.2 67.89 -25.68 69.19 -24.62C70.21 -23.94 71 -23.6 71.56 -23.6C72.52 -23.6 73.61 -24.44 74.82 -26.11C75.47 -27.01 75.8 -27.87 75.8 -28.69C75.8 -29.52 75.4 -30.25 74.59 -30.91C74.28 -31.12 73.84 -31.4 73.29 -31.74L72.17 -32.4C71.39 -32.86 70.25 -33.32 68.75 -33.77C67.24 -34.22 65.76 -34.44 64.3 -34.44C61.23 -34.44 58.17 -33.61 55.13 -31.93C53.52 -31.06 52.08 -29.98 50.83 -28.69C49.57 -27.41 48.54 -25.78 47.73 -23.81C46.93 -21.84 46.52 -19.64 46.52 -17.22C46.52 -14.8 46.93 -12.56 47.76 -10.5C48.58 -8.43 49.62 -6.74 50.9 -5.42C52.17 -4.1 53.6 -2.99 55.2 -2.07C56.8 -1.16 58.35 -0.5 59.86 -0.12C61.36 0.27 62.85 0.47 64.33 0.47C65.8 0.47 67.33 0.22 68.91 -0.28C70.49 -0.78 71.54 -1.18 72.05 -1.49C72.56 -1.8 73.1 -2.13 73.66 -2.47C74.22 -2.81 74.7 -3.2 75.12 -3.63C75.54 -4.06 75.75 -4.61 75.75 -5.26C75.75 -5.91 75.41 -6.78 74.73 -7.87C73.61 -9.6 72.57 -10.47 71.61 -10.47C71.18 -10.47 70.43 -10.16 69.38 -9.54Z M86.69 -21.46C84.08 -19.04 82.78 -15.96 82.78 -12.24C82.78 -9.76 83.44 -7.53 84.76 -5.56C86.08 -3.59 87.7 -2.1 89.62 -1.09C91.55 -0.09 93.53 0.42 95.58 0.42C97.63 0.42 99.61 -0.05 101.51 -1C103.42 -1.95 105.04 -3.42 106.38 -5.42C107.71 -7.42 108.38 -9.71 108.38 -12.29C108.38 -16.01 107.09 -19.08 104.52 -21.48C101.94 -23.89 98.98 -25.09 95.63 -25.09C92.28 -25.09 89.3 -23.88 86.69 -21.46ZM95.53 -7.77C94.51 -7.77 93.5 -8.15 92.51 -8.91C91.52 -9.67 91.02 -10.81 91.02 -12.31C91.02 -13.82 91.5 -14.96 92.46 -15.73C93.42 -16.51 94.46 -16.9 95.58 -16.9C96.7 -16.9 97.74 -16.52 98.7 -15.78C99.66 -15.03 100.14 -13.9 100.14 -12.38C100.14 -10.86 99.63 -9.71 98.61 -8.94C97.58 -8.16 96.56 -7.77 95.53 -7.77Z M134.19 -23.3C133.8 -23.75 133.31 -24.06 132.72 -24.25C132.13 -24.44 131.59 -24.57 131.09 -24.65C130.6 -24.72 129.98 -24.76 129.26 -24.76C128.53 -24.76 127.68 -24.5 126.72 -23.97C125.76 -23.44 125.13 -23.02 124.83 -22.71C124.54 -22.4 124.31 -22.14 124.16 -21.92C124.16 -22.45 123.99 -22.96 123.65 -23.46C123.18 -24.17 122.02 -24.53 120.16 -24.53C118.17 -24.53 116.96 -24.11 116.53 -23.27C116.31 -22.84 116.18 -22.44 116.13 -22.09C116.08 -21.73 116.06 -21.19 116.06 -20.48L116.06 -4.14L116.06 -2.79C116.12 -1.89 116.4 -1.23 116.9 -0.79C117.55 -0.26 118.62 0 120.11 0C122.06 0 123.27 -0.4 123.74 -1.21C123.99 -1.68 124.14 -2.09 124.18 -2.44C124.23 -2.8 124.25 -3.34 124.25 -4.05L124.25 -13.82C124.25 -14.66 124.62 -15.38 125.35 -15.96C126.07 -16.55 126.86 -16.85 127.7 -16.85C128.53 -16.85 129.21 -16.73 129.72 -16.48C130.23 -16.23 130.77 -16.1 131.33 -16.1C132.44 -16.1 133.3 -16.69 133.89 -17.87C134.48 -19.05 134.77 -20.14 134.77 -21.13C134.77 -22.12 134.58 -22.85 134.19 -23.3Z M162.81 -10.96C163.76 -11.88 164.23 -13.29 164.23 -15.2C164.23 -17.11 163.71 -18.87 162.65 -20.48C160.63 -23.52 157.47 -25.04 153.16 -25.04C149.37 -25.04 146.21 -23.87 143.68 -21.53C141.16 -19.18 139.89 -16.06 139.89 -12.15C139.89 -9.05 140.87 -6.24 142.82 -3.72C143.82 -2.42 145.2 -1.37 146.99 -0.58C148.77 0.21 150.81 0.61 153.11 0.61C159.72 0.61 163.02 -0.78 163.02 -3.54C163.02 -4.13 162.82 -4.84 162.42 -5.68C161.71 -7.07 160.85 -7.77 159.86 -7.77C159.36 -7.77 158.74 -7.6 158 -7.26L157.48 -7.07C156.46 -6.7 155.05 -6.52 153.25 -6.52C152.23 -6.52 151.2 -6.81 150.18 -7.4C149.15 -7.99 148.64 -8.72 148.64 -9.59L159.67 -9.59C160.82 -9.59 161.87 -10.05 162.81 -10.96ZM154.41 -13.82L148.55 -13.82C148.55 -14.75 149.04 -15.63 150.04 -16.45C151.03 -17.28 152.03 -17.69 153.04 -17.69C154.05 -17.69 154.82 -17.47 155.37 -17.04C155.91 -16.6 156.18 -16.03 156.18 -15.31C156.18 -14.32 155.59 -13.82 154.41 -13.82Z"></path></g></g></svg>